<?xml version="1.0" encoding="UTF-8" standalone="no"?><svg width="1786" height="1786" viewBox="0 0 1786 1786" fill="none" xmlns="http://www.w3.org/2000/svg">
<circle cx="893" cy="893" r="893" fill="#E9DBC7"/>
<path d="M871 523L531 513L549 745.5L349 793L367 1022L629 969.5L846.5 835.5L950 680L871 523Z" fill="#729FA9"/>
<path fill-rule="evenodd" clip-rule="evenodd" d="M805.225 975.911C862.121 999.435 913.068 1042.18 946.918 1093.33C982.41 1147.01 1005.93 1207.33 1032.95 1265.45C1039.37 1279.27 1045.8 1293.01 1052.16 1306.89C1062.08 1328.37 1071.93 1352.03 1080.88 1371.45C1096.41 1371.59 1112 1371.72 1127.52 1371.72H1175.46C1177.44 1371.72 1195.16 1370.97 1195.36 1371.72C1188.45 1345.67 1169.31 1247.95 1164.31 1221.75C1149.68 1145.16 1138.12 1067.96 1127.66 990.682C1126.36 980.493 1137.92 959.635 1145.85 958.336C1227.57 943.633 1309.91 932.555 1392.24 952.386C1402.64 954.848 1412.62 958.678 1422.4 962.712C1427.39 964.764 1432.38 966.952 1437.37 969.004C1440.45 970.303 1443.39 972.355 1446.74 973.107C1447.91 973.38 1450.23 973.859 1451.12 972.697C1452.15 971.261 1451.26 965.995 1451.26 964.285V891.524C1451.26 797.7 1452.15 792.913 1450.64 791.75C1449.62 790.861 1447.7 792.024 1446.67 792.639C1444.49 793.938 1442.3 795.375 1439.9 796.742C1435.66 799.341 1431.29 801.871 1426.84 804.196C1418.23 808.983 1409.27 813.36 1400.17 817.463C1379.38 826.9 1357.71 834.491 1335.55 840.303C1314.14 845.979 1292.19 850.219 1270.24 853.297C1248.43 856.374 1226.41 858.22 1204.32 859.588C1193.31 860.34 1182.23 860.751 1171.22 861.161C1168.42 861.161 1138.4 862.939 1138.26 862.46C1136.82 852.271 1135.32 847.347 1135.59 842.492C1142.91 718.168 1149.95 645.475 1158.77 521.288C1159.53 511.646 1172.38 496.533 1181.34 494.96C1288.16 476.769 1390.39 485.523 1480.05 558.763C1484.01 561.703 1489.01 565.328 1493.79 568.2C1496.6 569.978 1499.54 571.688 1502.27 573.466C1503.91 574.491 1505.62 575.517 1507.26 576.543C1508.43 577.295 1510.75 579.757 1511.98 577.569C1512.6 576.406 1512.26 573.944 1512.39 572.645C1512.39 570.867 1512.67 569.294 1512.8 567.516C1514.24 548.026 1515.74 528.468 1517.18 508.979C1518.62 490.036 1519.03 483.95 1520.33 464.87C1521.08 455.433 1522.24 445.928 1522.99 436.354C1523.13 433.892 1523.61 431.567 1523.88 429.037C1523.88 427.737 1523.88 425.549 1523.47 423.771C1522.86 421.583 1521.56 419.531 1517.18 419.394H1508.84C1504.73 419.258 1500.63 419.394 1496.39 419.668C1310.59 425.07 1121.98 419.463 915.051 419.463H826.698C1051.21 442.714 1051.21 668.384 1014.41 765.49C948.628 894.054 907.597 907.731 805.02 976.116L805.225 975.911Z" fill="#221F20"/>
<path fill-rule="evenodd" clip-rule="evenodd" d="M527.321 791.036C528.757 792.472 529.441 794.25 528.757 794.865C528.142 795.481 525.68 795.549 523.286 795.002C520.961 794.455 520.277 792.745 521.85 791.172C523.423 789.668 525.817 789.6 527.321 791.036Z" fill="#221F20"/>
<path fill-rule="evenodd" clip-rule="evenodd" d="M709.612 571.877C706.124 569.279 701.693 566.825 698 564.5C694.581 562.312 692.242 560.936 688.618 559.021C679.865 554.439 670.975 550.062 661.879 546.096C658.529 544.66 655.178 543.156 651.69 542.061C645.946 540.283 640.407 537.548 634.594 535.907C625.841 533.513 617.634 531.325 608.471 530.641C603.889 530.299 599.307 530.094 594.726 530.368C592.469 530.504 588.708 530.504 586.998 532.214C585.835 533.377 585.083 538.232 585.425 542.95C585.699 547.737 589.392 556.696 593.7 562.85C618.729 599.3 627.003 680.131 610.796 729.983L602.932 754.191L580.707 758.021C549.386 763.423 494.952 782.298 471.496 795.838C451.322 807.463 426.088 829.893 421.301 840.356C416.72 850.477 427.593 855.811 448.177 853.486C482.369 849.588 501.38 849.452 512.595 853.144C528.05 858.205 530.717 862.103 522.238 867.437C500.696 880.909 467.393 899.441 433.2 917.084C412.001 927.957 393.264 938.283 391.554 939.993C386.699 944.78 393.058 948.952 399.965 945.532C403.316 943.823 411.317 940.54 417.609 938.215C428.755 934.112 499.807 897.663 517.109 887.132C523.537 883.234 529.692 883.986 542.753 890.209C569.423 902.997 593.837 891.235 580.501 871.95L574.142 862.787L586.246 865.385C608.061 870.104 639.586 869.01 650.254 863.197C655.998 860.051 659.896 856.7 658.871 855.743C657.845 854.786 645.262 854.033 630.833 854.033C616.404 854.033 595.204 851.982 583.579 849.451C581.322 848.973 579.134 848.631 576.877 848.357C574.62 848.084 572.022 847.468 569.697 847.468C566.619 847.058 563.474 847.126 560.396 846.648C556.43 846.101 552.464 845.622 548.429 845.143C544.257 844.665 540.086 844.528 536.12 843.228C531.196 841.587 538.171 840.972 551.643 841.861C627.687 846.784 664.341 846.237 682.668 839.809C693.405 836.048 703.663 831.535 705.509 829.757C711.664 823.739 704.962 822.371 690.396 826.611C682.463 828.936 652.648 830.372 623.994 829.757C540.428 828.115 510.339 828.184 503.09 829.962C499.329 830.919 497.687 830.304 499.329 828.526C503.09 824.628 529.281 822.918 599.512 822.098C700.038 820.935 714.536 819.02 740.112 803.634C752.831 796.043 746.608 791.461 730.538 796.59C714.262 801.787 659.076 807.6 625.43 807.737C611.411 807.737 599.581 808.147 599.239 808.489C598.829 808.831 587.272 809.378 573.526 809.651C559.781 809.925 541.249 811.156 532.359 812.387C514.373 814.917 496.593 815.259 498.782 813.071C503.227 808.694 612.095 795.086 655.178 793.513C692.037 792.213 741.958 786.195 759.807 780.861C775.535 776.211 804.12 758.158 800.906 754.944C800.085 754.123 788.255 757.132 774.646 761.645C754.062 768.484 677.403 777.921 626.251 779.972C619.344 780.246 601.222 782.229 586.041 784.417C570.859 786.606 555.541 788.042 555.541 788.042C555.541 788.042 548.361 788.999 543.163 790.572C537.966 792.145 533.726 792.145 533.726 790.641C533.726 786.195 575.236 776.485 607.855 773.271C616.951 772.382 625.977 771.151 635.004 769.715C655.793 766.432 676.924 766.911 697.85 764.176C709.954 762.603 722.058 760.825 734.094 759.047C798.444 749.61 845.288 724.923 878.454 682.866C890.49 667.616 891.106 665.565 885.225 659.615C880.711 655.033 875.651 654.281 868.265 657.085C855.682 661.872 845.014 661.051 838.654 654.828C832.636 648.947 848.57 632.193 859.17 633.287C870.453 634.449 880.232 622.687 873.599 615.985C866.692 609.01 813.01 608.463 791.537 615.233C775.535 620.225 775.467 620.225 754.131 602.445L709.612 571.877ZM269 1026C270.653 840.098 272.294 666.81 263.677 486.411C263.062 474.922 261.763 462.955 262.173 451.466C262.446 444.765 261.284 436.763 262.788 430.199C265.729 417.274 278.175 415.085 289.869 415.085C458.027 415.701 587.001 413.513 755.16 417.274C881.33 420.214 961.75 508.431 967.016 635.422C972.282 759.745 915.18 850.902 818.005 921.818C795.575 938.093 771.845 952.659 736.696 976.115C747.569 979.329 753.86 980.218 759.126 983.09C828.878 1021.39 877.91 1078.9 911.351 1149.54C945.338 1221.34 976.521 1294.17 1011.94 1371.79H736.08C707.632 1279.06 669.884 1167.87 637.332 1076.57C621.672 1032.46 615.928 1036.84 573.187 1054.01C506.854 1080.68 479.432 1122.73 493.314 1194.26C502.409 1240.97 505.965 1324.47 511.915 1371.79H270.653C270.653 1261 270.653 1136.5 269 1026Z" fill="#221F20"/>
<path d="M458.499 546C458.038 508.682 457.98 474.454 457.349 434.053C452.493 433.931 436.371 434.004 432.996 434.441C429.864 434.83 428.431 435.194 428.504 438.666C428.553 441.555 429.67 444.372 430.568 447.067C435.448 461.61 437.051 476.712 436.541 491.984C436.468 494.315 436.274 496.743 435.108 498.758C431.636 504.901 423.357 505.313 417.117 505.216C408.546 505.046 400.17 504.949 391.575 505.459C384.218 505.896 376.813 507.11 369.529 508.081C355.641 509.902 346.803 511.723 330.706 512.767C320.873 513.423 307.713 512.306 298.147 506.673C295.039 504.852 295.039 506.479 295.039 509.368C295.088 522.722 295.039 530.37 295.039 543.724C295.039 544.889 295.306 545.715 296.253 546.467C298.244 548.046 305.018 550.109 307.47 550.789C309.898 551.469 312.229 552.319 314.73 552.804C318.736 553.581 322.864 554.14 326.943 553.946C367.222 551.979 391.56 532.063 458.499 546Z" fill="#E9DBC7" stroke="#E9DBC7" stroke-linejoin="round"/>
<path d="M301.013 569.41C299.484 569.119 298.051 568.658 296.886 569.799C295.89 570.77 295.453 572.275 295.453 573.587C295.502 580.749 295.526 588.057 295.623 595.511C295.672 599.396 295.647 603.256 295.866 607.141C295.987 609.181 295.72 611.973 297.614 613.308C298.585 613.988 299.702 614.134 300.867 614.158C315.532 614.352 333.135 612.653 347.363 609.375C363.388 605.66 379.655 601.921 395.971 600.95C411.121 600.051 428.918 602.771 444.19 603.985C448.585 604.325 454.242 605.174 458.952 605.709C458.952 590.534 458.855 580.822 458.515 560.111C443.583 560.816 424.305 561.325 409.422 562.491C394.635 563.656 379.849 565.21 365.209 567.468C355.108 569.022 343.163 570.139 333.062 571.693C329.445 571.838 327.114 571.96 322.234 572.081C318.543 572.178 304.228 570.545 301.013 569.41Z" fill="#E9DBC7" stroke="#E9DBC7" stroke-linejoin="round"/>
<path d="M344.522 1090.21C357.487 1089.82 368.68 1086.11 378.392 1077.9C387.496 1070.23 396.237 1062.12 405.148 1054.23C412.432 1047.79 420.687 1044.83 430.496 1047.02C435.716 1048.18 440.742 1049.57 459.558 1050.08C459.558 1034.39 459.291 1018.17 459.121 1003.07C443.485 1004.75 437.901 1005.91 432.001 1007.3C422.192 1009.6 413.719 1007.2 405.973 1000.98C398.01 994.598 389.973 988.309 381.694 982.312C372.734 975.83 363.265 969.76 351.903 969.274C334.761 968.546 317.595 968.497 300.818 964.248C297.807 963.495 295.622 964.297 295.695 967.574C295.841 974.786 295.719 981.972 295.744 989.183C295.744 994.088 297.37 994.865 302.154 993.699C317.401 990.009 332.916 988.916 348.552 989.499C351.733 989.62 355.035 990.64 357.972 991.903C371.326 997.706 381.354 1008.02 391.915 1017.59C392.498 1018.12 392.304 1020.7 391.6 1021.28C383.418 1028.2 375.211 1035.14 366.689 1041.63C361.663 1045.46 355.86 1047.84 349.256 1047.84C332.989 1047.84 316.794 1047.31 300.94 1043.21C297.977 1042.43 296.521 1043.28 296.593 1046.63C296.739 1054.08 296.642 1061.56 296.642 1069.04C296.642 1075.98 296.642 1082.93 296.642 1089.87C296.642 1094.92 297.2 1095.09 302.008 1094.53C316.163 1092.88 330.294 1090.67 344.497 1090.24L344.522 1090.21Z" fill="#E9DBC7" stroke="#E9DBC7" stroke-linejoin="round"/>
<path d="M458.402 1072.54C436.696 1082.05 433.005 1082.66 427.785 1084.72C417.612 1088.75 407.293 1092.47 397.047 1096.31C370.096 1106.41 342.126 1113.81 314.52 1122.14C312.481 1122.75 309.883 1122.14 307.722 1121.48C301.191 1119.49 299.515 1121.05 299.637 1128.09C299.783 1137.48 299.855 1145.96 300.268 1156.35C300.632 1165.94 304.687 1168.93 313.598 1172.54C319.716 1175.02 325.762 1177.79 331.686 1180.73C351.474 1190.49 370.995 1200.78 390.977 1210.1C405.302 1216.78 420.064 1222.78 436.428 1222.46C441.527 1222.37 446.674 1221.1 450.996 1218.36C455.318 1215.62 457.673 1211.61 458.426 1206.44C459.227 1200.95 459.543 1195.34 458.936 1189.83C458.474 1185.61 457.552 1180.9 455.342 1177.11C454.808 1176.21 454.225 1175.36 453.546 1174.58C447.888 1168.15 441.964 1161.86 437.108 1154.84C427.761 1141.34 434.753 1125.73 450.802 1123.18C451.166 1123.13 458.571 1121.65 458.96 1121.53M415.596 1197.89C402.607 1193.69 389.714 1188.81 377.332 1183.06C363.759 1176.74 350.77 1169.14 337.562 1162.05C336.493 1161.5 335.595 1160.62 333.337 1158.95C363.08 1149.45 391.584 1140.32 421.254 1130.86C414.795 1148.46 422.953 1161.21 432.034 1173.76C436.55 1180 440.75 1187.06 435.676 1194.42C430.723 1201.61 422.322 1200.1 415.596 1197.92V1197.89Z" fill="#E9DBC7"/>
<path d="M458.402 1072.54C436.696 1082.05 433.005 1082.66 427.785 1084.72C417.612 1088.75 407.293 1092.47 397.047 1096.31C370.096 1106.41 342.126 1113.81 314.52 1122.14C312.481 1122.75 309.883 1122.14 307.722 1121.48C301.191 1119.49 299.515 1121.05 299.637 1128.09C299.783 1137.48 299.855 1145.96 300.268 1156.35C300.632 1165.94 304.687 1168.93 313.598 1172.54C319.716 1175.02 325.762 1177.79 331.686 1180.73C351.474 1190.49 370.995 1200.78 390.977 1210.1C405.302 1216.78 420.064 1222.78 436.428 1222.46C441.527 1222.37 446.674 1221.1 450.996 1218.36C455.318 1215.62 457.673 1211.61 458.426 1206.44C459.227 1200.95 459.543 1195.34 458.936 1189.83C458.474 1185.61 457.552 1180.9 455.342 1177.11C454.808 1176.21 454.225 1175.36 453.546 1174.58C447.888 1168.15 441.964 1161.86 437.108 1154.84C427.761 1141.34 434.753 1125.73 450.802 1123.18C451.166 1123.13 458.571 1121.65 458.96 1121.53M415.596 1197.89C402.607 1193.69 389.714 1188.81 377.332 1183.06C363.759 1176.74 350.77 1169.14 337.562 1162.05C336.493 1161.5 335.595 1160.62 333.337 1158.95C363.08 1149.45 391.584 1140.32 421.254 1130.86C414.795 1148.46 422.953 1161.21 432.034 1173.76C436.55 1180 440.75 1187.06 435.676 1194.42C430.723 1201.61 422.322 1200.1 415.596 1197.92V1197.89Z" stroke="#E9DBC7" stroke-linejoin="round"/>
<path d="M438.678 641.644C445.646 647.228 451.182 654.512 454.873 662.621C458.976 671.702 459.826 680.346 459.68 690.155C459.631 694.136 459.292 698.094 459.049 702.076C458.515 710.161 458.248 718.489 454.897 725.87C450.551 735.46 442.587 743.036 433.895 748.766C414.253 761.707 391.916 769.5 368.219 767.704C338.792 765.47 314.876 751.315 302.931 723.685C290.791 695.617 294.36 668.084 315.532 644.582C327.939 630.815 344.425 624.502 362.294 621.613C385.87 617.801 408.134 622.026 428.529 634.384C432.098 636.545 435.449 639.046 438.702 641.668L438.678 641.644ZM446.836 698.919C447.88 682.725 434.381 673.523 420.784 668.594C411.703 665.316 401.967 663.423 392.304 663.204C378.076 662.888 363.848 664.078 349.717 665.656C337.578 666.992 325.729 668.521 315.435 675.732C305.82 682.458 305.116 695.448 314.026 703.144C319.319 707.709 325.753 711.496 332.285 713.949C346.658 719.339 361.906 722.349 377.275 722.058C395.339 721.718 416.535 723.053 433.167 714.847C434.623 714.119 436.177 713.22 437.707 712.152C442.272 708.923 446.472 704.285 446.812 698.919H446.836Z" fill="#E9DBC7" stroke="#E9DBC7" stroke-linejoin="round"/>
<path fill-rule="evenodd" clip-rule="evenodd" d="M459.349 828.088C454.5 829 437.983 832.58 433.467 833.454C420.259 835.979 406.929 837.97 393.6 839.767C391.852 839.985 388.525 839.937 388.015 836.635C385.83 822.479 383.572 808.324 386.996 794.121C387.408 792.324 388.088 790.6 388.768 788.925C389.132 788.075 389.496 787.201 389.861 786.351C390.079 785.817 390.443 785.307 390.565 784.725C390.613 784.53 390.686 784.118 390.492 783.972C390.249 783.802 389.326 783.972 389.035 783.972H376.483C360.288 783.972 359.462 783.826 359.268 784.069C359.123 784.239 359.317 784.579 359.414 784.749C359.632 785.137 359.875 785.502 360.118 785.914C360.555 786.643 360.992 787.395 361.405 788.172C362.23 789.653 362.983 791.207 363.687 792.785C365.314 796.379 366.625 800.118 367.62 803.93C368.592 807.62 369.32 811.408 369.854 815.196C370.388 818.959 370.704 822.771 370.947 826.583C371.068 828.477 371.141 830.395 371.214 832.288C371.214 840.082 364.076 838.213 358.467 837.849C353.368 837.509 348.27 837.144 343.195 836.756C332.998 835.979 322.776 835.226 312.578 834.425C310.903 834.304 308.305 832.07 308.038 830.54C304.906 812.112 306.411 794.461 319.037 778.995C319.547 778.315 320.178 777.441 320.664 776.615C320.979 776.13 321.271 775.62 321.562 775.158C321.732 774.867 321.926 774.576 322.096 774.309C322.217 774.114 322.655 773.702 322.266 773.483C322.072 773.386 321.635 773.435 321.416 773.41C321.101 773.41 320.834 773.362 320.542 773.337C317.167 773.095 313.792 772.828 310.442 772.585C307.164 772.342 306.12 772.269 302.842 772.051C301.216 771.929 299.565 771.711 297.914 771.589C297.501 771.589 297.088 771.492 296.651 771.444C296.432 771.444 296.044 771.444 295.753 771.516C295.364 771.614 295.024 771.856 295 772.609V774.042C295 774.746 295 775.45 295.049 776.178C296.093 792.276 295.51 808.64 295.388 824.737C295.316 833.138 295.243 841.515 295.17 849.915C295.121 854.31 295.073 858.705 295.073 863.124C295.073 866.207 294.417 869.388 297.816 871.063C300.026 872.131 302.624 872.059 305.052 871.743C348.221 865.819 349.386 869.801 374.613 870.286C401.879 870.82 431.5 871.209 459.252 866.863" fill="#E9DBC7"/>
<path d="M459.349 828.088C454.5 829 437.983 832.58 433.467 833.454C420.259 835.979 406.929 837.97 393.6 839.767C391.852 839.985 388.525 839.937 388.015 836.635C385.83 822.479 383.572 808.324 386.996 794.121C387.408 792.324 388.088 790.6 388.768 788.925C389.132 788.075 389.496 787.201 389.861 786.351C390.079 785.817 390.443 785.307 390.565 784.725C390.613 784.53 390.686 784.118 390.492 783.972C390.249 783.802 389.326 783.972 389.035 783.972H376.483C360.288 783.972 359.462 783.826 359.268 784.069C359.123 784.239 359.317 784.579 359.414 784.749C359.632 785.137 359.875 785.502 360.118 785.914C360.555 786.643 360.992 787.395 361.405 788.172C362.23 789.653 362.983 791.207 363.687 792.785C365.314 796.379 366.625 800.118 367.62 803.93C368.592 807.62 369.32 811.408 369.854 815.196C370.388 818.959 370.704 822.771 370.947 826.583C371.068 828.477 371.141 830.395 371.214 832.288C371.214 840.082 364.076 838.213 358.467 837.849C353.368 837.509 348.27 837.144 343.195 836.756C332.998 835.979 322.776 835.226 312.578 834.425C310.903 834.304 308.305 832.07 308.038 830.54C304.906 812.112 306.411 794.461 319.037 778.995C319.547 778.315 320.178 777.441 320.664 776.615C320.979 776.13 321.271 775.62 321.562 775.158C321.732 774.867 321.926 774.576 322.096 774.309C322.217 774.114 322.655 773.702 322.266 773.483C322.072 773.386 321.635 773.435 321.416 773.41C321.101 773.41 320.834 773.362 320.542 773.337C317.167 773.095 313.792 772.828 310.442 772.585C307.164 772.342 306.12 772.269 302.842 772.051C301.216 771.929 299.565 771.711 297.914 771.589C297.501 771.589 297.088 771.492 296.651 771.444C296.432 771.444 296.044 771.444 295.753 771.516C295.364 771.614 295.024 771.856 295 772.609V774.042C295 774.746 295 775.45 295.049 776.178C296.093 792.276 295.51 808.64 295.388 824.737C295.316 833.138 295.243 841.515 295.17 849.915C295.121 854.31 295.073 858.705 295.073 863.124C295.073 866.207 294.417 869.388 297.816 871.063C300.026 872.131 302.624 872.059 305.052 871.743C348.221 865.819 349.386 869.801 374.613 870.286C401.879 870.82 431.5 871.209 459.252 866.863" stroke="#E9DBC7" stroke-linejoin="round"/>
<path fill-rule="evenodd" clip-rule="evenodd" d="M398.184 1345.75C368.296 1342.79 338.869 1350.27 308.98 1351.7C307.087 1351.8 305.096 1352.02 303.178 1351.95C302.061 1351.9 299.924 1352.14 298.832 1351.87C296.695 1351.39 296.331 1349.32 296.331 1347.38C296.428 1319.51 296.064 1298.12 296.695 1270.24C297.18 1249.34 312.622 1235.96 333.673 1235.09C354.286 1234.21 369.388 1243.68 381.14 1259.78C383.835 1263.49 386.263 1267.43 390.147 1273.25C390.681 1271.46 390.827 1270.41 391.313 1269.54C397.65 1257.98 407.192 1249.85 418.894 1244.31C430.791 1238.68 445.286 1233.51 458.155 1227.63L458.834 1273.21C443.465 1277.92 421.929 1284.33 406.779 1289.72C399.471 1292.31 400.199 1293.26 403.04 1300.35C407.459 1311.35 414.427 1315.89 426.3 1313.58C434.045 1312.08 451.308 1311.33 459.15 1310.35L459.587 1350.27C443.295 1347.87 415.131 1347.38 398.184 1345.71V1345.75Z" fill="#E9DBC7" stroke="#E9DBC7" stroke-linejoin="round"/>
<path d="M388.297 1312.93C367.004 1312.56 345.687 1312.27 324.393 1311.74C320.144 1311.64 315.774 1311.11 311.719 1309.92C303.464 1307.49 300.381 1299.31 304.435 1291.61C307.883 1285.01 313.662 1281.61 320.776 1280.47C347.605 1276.22 370.112 1284.23 388.225 1304.53C389.269 1305.69 390.215 1306.93 391.259 1308.1C392.255 1309.26 393.299 1310.4 395.533 1312.9C392.061 1312.9 390.191 1312.93 388.322 1312.9L388.297 1312.93Z" fill="#E9DBC7" stroke="#E9DBC7" stroke-linejoin="round"/>
<path d="M430.5 828.5C400.501 855.5 436.5 858.5 462.5 852.5C488.5 846.5 460.5 801.5 430.5 828.5Z" fill="#729FA9"/>
<path d="M422.501 832.5C406.501 851 421.5 863 460.501 856" stroke="#221F20" stroke-width="6"/>
<path d="M390.521 1313.7C368.511 1313.32 346.475 1313.02 324.465 1312.47C320.073 1312.37 315.556 1311.81 311.364 1310.59C302.831 1308.08 299.644 1299.62 303.835 1291.66C307.399 1284.84 313.372 1281.32 320.726 1280.14C348.458 1275.75 371.723 1284.03 390.446 1305.01C391.525 1306.22 392.504 1307.5 393.583 1308.7C394.612 1309.91 395.691 1311.09 398 1313.67C394.411 1313.67 392.479 1313.7 390.546 1313.67L390.521 1313.7Z" fill="#221F20" stroke="#E9DBC7" stroke-width="8.2694" stroke-linejoin="round"/>
</svg>
